<?xml version="1.0" encoding="utf-8"?>
<!-- Generator: Adobe Illustrator 19.1.0, SVG Export Plug-In . SVG Version: 6.00 Build 0)  -->
<svg version="1.1" baseProfile="tiny" id="Layer_1" xmlns="http://www.w3.org/2000/svg" xmlns:xlink="http://www.w3.org/1999/xlink"
	 x="0px" y="0px" width="477.7px" height="639px" viewBox="67.7 76.6 477.7 639" xml:space="preserve">
<g>
	<g>
		<g>
			<path fill="#FACA32" d="M306.6,86.6c126.2,0,228.9,138.8,228.9,309.5c0,170.6-102.7,309.5-228.9,309.5
				c-126.2,0-228.9-138.8-228.9-309.5C77.7,225.4,180.4,86.6,306.6,86.6z M481.7,396.1c0-71.1-20.1-137.4-56.5-186.7
				c-32.9-44.5-75-69-118.6-69c-43.6,0-85.7,24.5-118.6,69c-36.4,49.3-56.5,115.7-56.5,186.7c0,71.1,20.1,137.4,56.5,186.7
				c32.9,44.5,75,69,118.6,69c43.6,0,85.7-24.5,118.6-69C461.7,533.5,481.7,467.2,481.7,396.1z"/>
			<path fill="#27649B" d="M306.6,76.6c131.9,0,238.9,143,238.9,319.5S438.5,715.6,306.6,715.6c-131.9,0-238.9-143-238.9-319.5
				C67.7,219.6,174.7,76.6,306.6,76.6z M535.5,396.1c0-170.6-102.7-309.5-228.9-309.5c-126.2,0-228.9,138.8-228.9,309.5
				c0,170.6,102.7,309.5,228.9,309.5C432.8,705.6,535.5,566.7,535.5,396.1z"/>
			<path fill="#FFFFFF" d="M417.2,215.3c35.2,47.6,54.6,111.8,54.6,180.8c0,69-19.4,133.2-54.6,180.8c-31,41.9-70.2,65-110.6,65
				c-40.3,0-79.6-23.1-110.6-65c-35.2-47.6-54.6-111.8-54.6-180.8c0-69,19.4-133.2,54.6-180.8c31-41.9,70.2-65,110.6-65
				C346.9,150.3,386.2,173.4,417.2,215.3z"/>
			<path fill="#27649B" d="M425.2,209.3c36.5,49.3,56.5,115.7,56.5,186.8c0,71.1-20.1,137.4-56.5,186.7c-32.9,44.5-75,69-118.6,69
				c-43.6,0-85.7-24.5-118.6-69c-36.4-49.3-56.5-115.7-56.5-186.8c0-71.1,20.1-137.4,56.5-186.8c32.9-44.5,75-69,118.6-69
				C350.2,140.3,392.3,164.9,425.2,209.3z M471.8,396.1c0-69-19.4-133.2-54.6-180.8c-31-41.9-70.2-65-110.6-65
				c-40.3,0-79.6,23.1-110.6,65c-35.2,47.6-54.6,111.8-54.6,180.8c0,69,19.4,133.2,54.6,180.8c31,41.9,70.2,65,110.6,65
				c40.3,0,79.6-23.1,110.6-65C452.4,529.3,471.8,465.1,471.8,396.1z"/>
			<polygon fill="#27649B" points="143.6,558.9 157.7,560.4 147.2,550.9 153,537.9 140.7,545 130.1,535.5 133.1,549.4 120.8,556.4 
				134.9,558 137.8,571.8 			"/>
			<polygon fill="#27649B" points="478.8,558 492.9,556.4 480.6,549.4 483.5,535.5 473,545 460.7,537.9 466.5,550.9 456,560.4 
				470.1,558.9 475.9,571.8 			"/>
		</g>
		<g>
			<path fill="#27649B" d="M113.3,520.3l-1.6-5.1l13.6-4.2c2.2-0.7,3.5-1.2,4.1-1.5c1-0.5,1.6-1.3,2-2.3c0.4-1,0.3-2.2-0.1-3.6
				c-0.4-1.4-1.1-2.4-1.9-3c-0.8-0.5-1.7-0.8-2.6-0.7c-0.9,0.1-2.3,0.5-4.3,1.1l-13.9,4.3l-1.6-5.1l13.2-4.1c3-0.9,5.2-1.4,6.5-1.6
				c1.3-0.1,2.5,0.1,3.6,0.5c1.1,0.5,2.1,1.2,3,2.3c0.9,1.1,1.6,2.6,2.2,4.6c0.7,2.4,1,4.3,0.9,5.7c-0.2,1.4-0.6,2.6-1.3,3.6
				c-0.7,1-1.4,1.7-2.3,2.3c-1.3,0.8-3.4,1.6-6.2,2.5L113.3,520.3z"/>
			<path fill="#27649B" d="M130.2,485.1l-25.6,5.6l-1.1-5l14.8-14.2l-17.1,3.7l-1-4.8l25.6-5.6l1.1,5.2l-14.5,14l16.7-3.6
				L130.2,485.1z"/>
			<path fill="#27649B" d="M124.6,457.1l-25.9,4.1l-0.8-5.2l25.9-4.1L124.6,457.1z"/>
			<path fill="#27649B" d="M121.9,437.9l-25.1,12l-0.6-5.7l18.6-8.6l-20-4.4l-0.6-5.6l27,6.7L121.9,437.9z"/>
			<path fill="#27649B" d="M120.2,418L94,418.8l-0.6-19.4l4.4-0.1l0.5,14.1l5.8-0.2l-0.4-13.2l4.4-0.1l0.4,13.2l7.1-0.2l-0.5-14.6
				l4.4-0.1L120.2,418z"/>
			<path fill="#27649B" d="M119.5,391.3l-26.2-1l0.4-11.1c0.1-2.8,0.4-4.8,0.9-6.1c0.5-1.2,1.4-2.2,2.6-2.9c1.2-0.7,2.6-1,4.2-1
				c2,0.1,3.6,0.7,4.8,1.9c1.2,1.2,2,3,2.2,5.3c0.7-1.1,1.5-2,2.3-2.7c0.8-0.7,2.3-1.7,4.4-2.8l5.2-3l-0.2,6.3l-5.9,3.6
				c-2.1,1.3-3.4,2.2-4,2.6c-0.5,0.5-0.9,1-1.2,1.5c-0.2,0.6-0.4,1.4-0.4,2.7l0,1.1l10.9,0.4L119.5,391.3z M104.6,385.5l0.2-3.9
				c0.1-2.5,0.1-4.1-0.1-4.8c-0.2-0.6-0.5-1.1-1.1-1.5c-0.5-0.4-1.2-0.6-1.9-0.6c-0.9,0-1.6,0.2-2.2,0.6c-0.6,0.4-0.9,1.1-1.1,2
				c-0.1,0.4-0.2,1.7-0.2,3.9l-0.2,4.1L104.6,385.5z"/>
			<path fill="#27649B" d="M112.4,363.1l0.1-5.2c1.8-0.1,3.1-0.6,4-1.4c0.9-0.9,1.5-2.1,1.6-3.7c0.2-1.7,0-3-0.6-4
				c-0.6-0.9-1.4-1.5-2.4-1.6c-0.6-0.1-1.2,0-1.6,0.4c-0.5,0.3-0.9,0.9-1.3,1.8c-0.3,0.6-0.8,2-1.6,4.1c-1,2.7-2.1,4.6-3.3,5.6
				c-1.6,1.4-3.4,2-5.5,1.8c-1.3-0.1-2.5-0.7-3.6-1.5c-1.1-0.9-1.8-2.1-2.3-3.6c-0.4-1.5-0.6-3.2-0.3-5.2c0.4-3.3,1.4-5.6,3-7.1
				c1.6-1.5,3.6-2.1,6-2l-0.4,5.3c-1.4,0.1-2.4,0.4-3,1.1c-0.7,0.7-1.1,1.8-1.3,3.2c-0.2,1.5,0,2.8,0.5,3.7c0.3,0.6,0.8,0.9,1.5,1
				c0.6,0.1,1.2-0.1,1.7-0.6c0.6-0.6,1.4-2.1,2.3-4.6c0.9-2.5,1.7-4.3,2.5-5.5c0.8-1.2,1.8-2,3-2.6c1.2-0.6,2.6-0.8,4.3-0.6
				c1.5,0.2,2.8,0.7,4.1,1.7c1.2,1,2,2.3,2.5,3.8c0.5,1.6,0.6,3.5,0.3,5.8c-0.4,3.3-1.4,5.7-3.1,7.3
				C117.7,362.3,115.3,363.1,112.4,363.1z"/>
			<path fill="#27649B" d="M124.4,336.3L98.5,332l0.9-5.2l25.9,4.4L124.4,336.3z"/>
			<path fill="#27649B" d="M100.9,318l2.2-9.4c0.5-2.1,1-3.7,1.6-4.8c0.8-1.4,1.9-2.5,3.2-3.3c1.4-0.8,2.9-1.3,4.7-1.5
				c1.8-0.2,3.8,0,6.2,0.5c2.1,0.5,3.9,1.2,5.3,2c1.7,1.1,3,2.3,3.9,3.8c0.7,1.1,1.1,2.5,1.2,4.1c0.1,1.2-0.1,2.8-0.5,4.7l-2.2,9.7
				L100.9,318z M106.4,313.9l16.9,3.9l0.9-3.9c0.3-1.4,0.5-2.5,0.5-3.2c0-0.9-0.2-1.7-0.6-2.3c-0.4-0.7-1.1-1.3-2.2-1.9
				c-1.1-0.6-2.6-1.1-4.6-1.6c-2-0.5-3.5-0.6-4.7-0.5s-2.1,0.4-2.8,0.9c-0.7,0.5-1.3,1.2-1.8,2.1c-0.3,0.7-0.7,2.1-1.2,4.2
				L106.4,313.9z"/>
			<path fill="#27649B" d="M140.4,273.5l-1.8,5.5l-6.4,0.4l-3.2,10l5,3.9l-1.7,5.3l-21.8-17.7l1.7-5.3L140.4,273.5z M127.5,279.6
				l-10.4,0.5l8.2,6.3L127.5,279.6z"/>
			<path fill="#27649B" d="M118,258.8l3.8-8.9c0.8-2,1.7-3.5,2.4-4.4c1-1.2,2.3-2.1,3.8-2.7c1.5-0.6,3.1-0.8,4.9-0.7
				c1.8,0.1,3.8,0.7,6,1.6c2,0.8,3.6,1.8,4.8,2.9c1.5,1.4,2.6,2.8,3.2,4.4c0.5,1.2,0.6,2.6,0.5,4.2c-0.1,1.2-0.6,2.7-1.3,4.5
				l-3.9,9.2L118,258.8z M124.2,255.6l16,6.8l1.5-3.6c0.6-1.4,0.9-2.4,1-3c0.1-0.9,0.1-1.7-0.2-2.4c-0.2-0.7-0.8-1.5-1.8-2.3
				s-2.3-1.6-4.2-2.4c-1.9-0.8-3.4-1.2-4.5-1.3c-1.1-0.1-2.1,0-2.9,0.4c-0.8,0.4-1.5,0.9-2.1,1.8c-0.4,0.6-1.1,1.9-1.9,3.9
				L124.2,255.6z"/>
			<path fill="#27649B" d="M159.9,212.4l4.1-3.6c2,2.2,3.2,4.4,3.4,6.7c0.2,2.3-0.4,4.6-1.8,7c-1.8,3-4.3,4.8-7.5,5.5
				c-3.2,0.7-6.6,0-10.1-2.2c-3.7-2.3-6.1-5-7-8.1c-0.9-3.2-0.4-6.3,1.5-9.5c1.7-2.7,3.8-4.5,6.5-5.2c1.6-0.4,3.4-0.4,5.5,0.2
				l-1.6,5.1c-1.3-0.4-2.6-0.4-3.8,0c-1.2,0.4-2.1,1.3-2.9,2.5c-1,1.7-1.2,3.4-0.7,5.1c0.6,1.8,2.2,3.4,4.9,5.1
				c2.8,1.7,5.2,2.4,7,2.1c1.8-0.3,3.2-1.3,4.2-2.9c0.7-1.2,1-2.5,0.7-3.8C162.1,215.1,161.3,213.7,159.9,212.4z"/>
			<path fill="#27649B" d="M188.8,188.8l-3.5,4.6l-6.1-1.8l-6.4,8.3l3.4,5.3l-3.4,4.5l-14.6-24l3.4-4.4L188.8,188.8z M174.7,190.2
				l-9.9-3l5.6,8.7L174.7,190.2z"/>
			<path fill="#27649B" d="M194.4,183L178.6,168l-5.3,5.7l-3.2-3l14.3-15.2l3.2,3l-5.3,5.6l15.8,14.9L194.4,183z"/>
			<path fill="#27649B" d="M198.2,160.4c-1.7-2.1-2.8-4.1-3.3-6c-0.4-1.4-0.5-2.9-0.4-4.3c0.1-1.5,0.5-2.8,1.2-4
				c0.8-1.6,2.1-3,3.8-4.4c3-2.4,6.2-3.4,9.5-3c3.3,0.4,6.3,2.3,9,5.6c2.7,3.3,3.8,6.6,3.5,9.9c-0.3,3.3-1.9,6.2-4.9,8.6
				c-3,2.4-6.2,3.5-9.5,3.1C203.8,165.5,200.8,163.7,198.2,160.4z M196.3,143l-1.4-5.7l4.4-3.5l-0.5,7.2L196.3,143z M202.3,156.8
				c1.9,2.3,3.8,3.6,5.8,4c2,0.3,3.9-0.2,5.5-1.5c1.6-1.3,2.5-3,2.6-5c0.1-2-0.8-4.2-2.7-6.6c-1.9-2.3-3.8-3.7-5.8-4
				c-2-0.3-3.8,0.2-5.5,1.6c-1.7,1.4-2.6,3.1-2.7,5.1C199.5,152.3,200.4,154.5,202.3,156.8z"/>
			<path fill="#27649B" d="M231.2,151.4l-12.9-22.6l4.6-2.6l10.7,18.7l11.4-6.5l2.2,3.8L231.2,151.4z"/>
			<path fill="#27649B" d="M252.4,140.2L242.2,116l4.9-2.1l10.2,24.2L252.4,140.2z"/>
			<path fill="#27649B" d="M277.4,121.9l5.4,0.3c0,3-0.8,5.4-2.2,7.2c-1.4,1.8-3.5,3.1-6.2,3.8c-3.4,0.9-6.4,0.4-9.2-1.3
				c-2.8-1.7-4.7-4.6-5.7-8.6c-1.1-4.2-0.9-7.8,0.7-10.7c1.6-2.9,4.1-4.8,7.7-5.7c3.1-0.8,5.9-0.5,8.3,0.8c1.4,0.8,2.7,2.1,3.8,4
				l-4.8,2.5c-0.6-1.2-1.5-2.1-2.7-2.6c-1.2-0.5-2.4-0.6-3.8-0.2c-1.9,0.5-3.2,1.6-4.1,3.2c-0.8,1.7-0.8,4-0.1,7
				c0.8,3.2,2,5.3,3.5,6.4c1.5,1.1,3.2,1.4,5,0.9c1.4-0.4,2.4-1.1,3.2-2.2C277.1,125.4,277.5,123.8,277.4,121.9z"/>
			<path fill="#27649B" d="M314.3,128.1l-5.8,0.2l-2.5-5.9l-10.5,0.4l-1.9,6l-5.6,0.2l9.1-26.6l5.6-0.2L314.3,128.1z M304.1,118.1
				l-4-9.6l-3.1,9.9L304.1,118.1z"/>
			<path fill="#27649B" d="M336,104.8l10.1,2.7c2,0.5,3.5,1,4.4,1.4c0.9,0.4,1.7,1,2.4,1.7c0.6,0.7,1.1,1.6,1.4,2.6
				c0.3,1,0.3,2.1,0,3.2c-0.3,1.2-0.9,2.2-1.8,3c-0.9,0.8-2,1.3-3.2,1.6c1.4,0.9,2.4,1.9,3,3.2c0.5,1.3,0.6,2.7,0.2,4.1
				c-0.3,1.2-0.9,2.2-1.7,3.2c-0.8,1-1.8,1.6-2.9,2c-1.1,0.4-2.3,0.5-3.8,0.3c-0.9-0.1-2.9-0.6-6.2-1.4l-8.6-2.3L336,104.8z
				 M337.4,120.4l-1.8,6.8l4.7,1.2c1.8,0.5,3,0.7,3.6,0.8c0.8,0.1,1.5-0.1,2.1-0.5c0.6-0.4,1-1.1,1.3-2c0.2-0.8,0.2-1.5,0-2.1
				c-0.2-0.6-0.7-1.2-1.3-1.6c-0.6-0.4-2.1-0.9-4.4-1.6L337.4,120.4z M340,110.3l-1.5,5.9l3.4,0.9c2,0.5,3.2,0.8,3.7,0.9
				c0.9,0.1,1.7,0,2.3-0.4c0.6-0.4,1.1-1,1.3-1.8c0.2-0.8,0.2-1.5-0.1-2.1c-0.3-0.6-0.9-1.1-1.7-1.4c-0.5-0.2-1.9-0.6-4.4-1.2
				L340,110.3z"/>
			<path fill="#27649B" d="M360.9,125.7c1.2-2.4,2.5-4.2,4.1-5.5c1.1-0.9,2.4-1.6,3.8-2.1c1.4-0.5,2.8-0.7,4.1-0.6
				c1.8,0.1,3.6,0.6,5.5,1.6c3.5,1.7,5.7,4.2,6.7,7.3c1,3.2,0.6,6.7-1.3,10.5c-1.9,3.8-4.4,6.3-7.5,7.4c-3.1,1.1-6.4,0.8-9.9-0.9
				c-3.5-1.7-5.7-4.2-6.8-7.3C358.7,132.9,359.1,129.5,360.9,125.7z M365.9,128c-1.3,2.7-1.7,5-1.2,7c0.5,2,1.8,3.4,3.7,4.4
				c1.9,0.9,3.8,1,5.7,0.3c1.9-0.8,3.5-2.5,4.9-5.2c1.3-2.7,1.7-5,1.2-6.9c-0.5-1.9-1.8-3.3-3.7-4.3c-2-1-3.9-1.1-5.7-0.3
				C368.9,123.5,367.3,125.3,365.9,128z"/>
			<path fill="#27649B" d="M382.9,152l15.2-21.1l4.3,3.1l-12.6,17.5l10.7,7.7l-2.6,3.6L382.9,152z"/>
			<path fill="#27649B" d="M402,166.7l17.4-19.6l4,3.5L406,170.2L402,166.7z"/>
			<path fill="#27649B" d="M415.9,179.8l12.8-24.7l3.9,4.2l-9.7,18.1l18.6-8.5l3.8,4.1l-25.6,11L415.9,179.8z"/>
			<path fill="#27649B" d="M428.8,194.7l20.6-16.2l3.3,4.2l-20.6,16.2L428.8,194.7z"/>
			<path fill="#27649B" d="M449.6,224.2l-3.2-4.8l3.7-5.2l-5.8-8.7l-6.2,1.5l-3.1-4.7l27.5-5.9l3.1,4.7L449.6,224.2z M452.9,210.4
				l6.1-8.4l-10.1,2.4L452.9,210.4z"/>
			<path fill="#27649B" d="M452,228.5l23.2-12.1l2.4,4.6L467,238.6l15.5-8.1l2.3,4.4L461.6,247l-2.5-4.7l10.3-17.3l-15.2,7.9
				L452,228.5z"/>
			<path fill="#27649B" d="M473.7,275.9l-2.2-5.3l4.7-4.4l-3.9-9.7l-6.3,0.2l-2.1-5.2l28.1-0.4l2.1,5.2L473.7,275.9z M479.6,262.9
				l7.7-7l-10.4,0.4L479.6,262.9z"/>
			<path fill="#27649B" d="M486.5,287.8l1.8,4.8c-1.6,0.7-2.6,1.7-3.2,2.8c-0.5,1.1-0.6,2.5-0.2,4c0.5,1.6,1.1,2.8,2.1,3.4
				c0.9,0.6,1.9,0.8,2.8,0.6c0.6-0.2,1.1-0.5,1.4-0.9c0.3-0.5,0.5-1.2,0.6-2.1c0-0.7,0-2.1,0-4.4c-0.1-2.9,0.2-5.1,0.9-6.4
				c1-1.9,2.5-3.2,4.5-3.7c1.3-0.4,2.6-0.3,3.9,0.1c1.3,0.4,2.5,1.2,3.4,2.5c1,1.2,1.7,2.8,2.2,4.7c0.9,3.2,0.8,5.8-0.1,7.7
				c-1,2-2.6,3.3-4.9,4l-1.6-5c1.2-0.6,2-1.3,2.4-2.2c0.4-0.9,0.4-2,0-3.5c-0.4-1.5-1-2.6-1.9-3.2c-0.5-0.4-1.1-0.6-1.8-0.4
				c-0.6,0.2-1,0.6-1.3,1.2c-0.4,0.8-0.5,2.5-0.4,5.2c0.1,2.6,0,4.6-0.3,6c-0.3,1.4-0.9,2.5-1.8,3.5c-0.9,1-2.2,1.7-3.8,2.1
				c-1.4,0.4-2.9,0.4-4.4-0.1c-1.5-0.5-2.7-1.3-3.8-2.7c-1-1.3-1.8-3.1-2.4-5.3c-0.9-3.2-0.8-5.9,0.2-8
				C481.9,290.5,483.8,288.9,486.5,287.8z"/>
			<path fill="#27649B" d="M489.7,340.3l-1.1-5.7l5.4-3.3l-1.9-10.3l-6.2-1l-1-5.5l27.7,5.2l1,5.5L489.7,340.3z M498.1,328.8
				l8.9-5.3l-10.2-1.7L498.1,328.8z"/>
			<path fill="#27649B" d="M490.3,345.3l26.1-2.8l0.5,5.1l-16.3,12.5l17.4-1.9l0.5,4.9l-26.1,2.8l-0.6-5.3l15.9-12.3l-17,1.8
				L490.3,345.3z"/>
			<path fill="#27649B" d="M493.5,386.4l26.2-0.1l0,8.5c0,3.2-0.1,5.3-0.4,6.3c-0.4,1.5-1.2,2.8-2.5,3.8c-1.3,1-3,1.5-5.1,1.5
				c-1.6,0-3-0.3-4.1-0.9c-1.1-0.6-2-1.3-2.6-2.2s-1-1.8-1.3-2.7c-0.3-1.3-0.4-3.1-0.4-5.5l0-3.5l-9.9,0.1L493.5,386.4z
				 M515.3,391.6l-7.4,0l0,2.9c0,2.1,0.2,3.5,0.4,4.2c0.3,0.7,0.7,1.2,1.3,1.6c0.6,0.4,1.3,0.6,2,0.6c1,0,1.7-0.3,2.4-0.9
				c0.6-0.6,1-1.3,1.2-2.1c0.1-0.6,0.2-1.9,0.2-3.8L515.3,391.6z"/>
			<path fill="#27649B" d="M491.9,434l0.4-5.7l6.1-1.9l0.7-10.5l-5.8-2.5l0.4-5.6l25.5,11.9l-0.4,5.6L491.9,434z M502.9,425l9.9-3
				l-9.5-4.2L502.9,425z"/>
			<path fill="#27649B" d="M517.2,442.7l-1.5,10.4c-0.3,2.1-0.6,3.6-0.9,4.6c-0.3,1-0.8,1.8-1.5,2.6c-0.7,0.7-1.5,1.3-2.5,1.7
				c-1,0.4-2,0.5-3.2,0.4c-1.2-0.2-2.3-0.7-3.2-1.5c-0.9-0.8-1.6-1.8-1.9-3c-0.7,1.5-1.6,2.6-2.9,3.3c-1.2,0.7-2.6,0.9-4.1,0.7
				c-1.2-0.2-2.3-0.6-3.3-1.3c-1-0.7-1.8-1.6-2.4-2.6c-0.5-1-0.8-2.3-0.7-3.7c0-0.9,0.3-3,0.7-6.3l1.3-8.8L517.2,442.7z
				 M501.9,445.9l-6.9-1l-0.7,4.9c-0.3,1.9-0.4,3.1-0.4,3.6c0,0.8,0.3,1.5,0.8,2.1c0.5,0.6,1.2,0.9,2.1,1.1c0.8,0.1,1.5,0,2.1-0.3
				c0.6-0.3,1.1-0.8,1.4-1.5c0.4-0.7,0.7-2.2,1-4.6L501.9,445.9z M512.2,447.4l-6-0.9l-0.5,3.4c-0.3,2-0.4,3.3-0.5,3.8
				c0,0.9,0.2,1.7,0.6,2.2c0.4,0.6,1.1,0.9,1.9,1.1c0.8,0.1,1.5,0,2-0.4c0.6-0.4,1-1,1.2-1.8c0.1-0.5,0.4-2,0.7-4.5L512.2,447.4z"/>
			<path fill="#27649B" d="M486.9,467.5l25.4,5.6l-1.1,5.2l-21.1-4.6l-2.8,12.9l-4.3-1L486.9,467.5z"/>
			<path fill="#27649B" d="M494.1,494c2.6,0.8,4.6,1.8,6.1,3.1c1.1,1,2,2.1,2.7,3.4c0.7,1.3,1.1,2.6,1.3,3.9c0.2,1.8,0,3.7-0.7,5.7
				c-1.1,3.7-3.2,6.3-6.2,7.8c-3,1.5-6.5,1.6-10.6,0.4c-4-1.2-6.9-3.3-8.5-6.2c-1.6-2.9-1.9-6.2-0.7-9.9c1.1-3.7,3.2-6.3,6.1-7.8
				C486.7,492.9,490.2,492.8,494.1,494z M492.7,499.3c-2.8-0.9-5.2-0.9-7.1,0c-1.9,0.9-3.1,2.3-3.7,4.3c-0.6,2-0.4,3.9,0.7,5.6
				c1.1,1.7,3,3.1,5.9,4c2.9,0.9,5.2,0.9,7,0.1c1.8-0.8,3-2.3,3.7-4.4c0.6-2.1,0.4-4-0.6-5.7C497.6,501.5,495.6,500.2,492.7,499.3z"
				/>
		</g>
		<g>
			<path fill="#27649B" d="M211.9,659.9l13.4-22.6l6.8,4l-5,17.8l13.2-13l6.8,4.1l-13.4,22.6l-4.2-2.5l10.5-17.8l-15,15.1l-4.4-2.6
				l6.1-20.4l-10.5,17.8L211.9,659.9z"/>
			<path fill="#27649B" d="M263.6,674.2l4.3,3.2c-1.7,2.4-3.6,4-5.8,4.7c-2.2,0.7-4.6,0.6-7.3-0.3c-3.3-1.1-5.6-3.2-6.9-6.2
				c-1.3-3-1.3-6.4,0-10.3c1.4-4.1,3.6-7,6.5-8.5c2.9-1.5,6.1-1.7,9.6-0.5c3,1.1,5.2,2.8,6.5,5.3c0.8,1.5,1.1,3.3,0.9,5.4l-5.4-0.5
				c0.2-1.4-0.1-2.6-0.8-3.7c-0.7-1.1-1.7-1.8-3-2.3c-1.8-0.6-3.6-0.5-5.2,0.4c-1.6,0.9-2.9,2.9-3.9,5.8c-1.1,3.1-1.3,5.6-0.6,7.3
				c0.7,1.7,1.9,2.9,3.7,3.5c1.3,0.5,2.6,0.4,3.9-0.1C261.4,676.9,262.5,675.8,263.6,674.2z"/>
			<path fill="#27649B" d="M276.5,687.7l2.9-26.1l7.9,0.9l2.7,18.3l6.7-17.2l7.9,0.9l-2.9,26.1l-4.9-0.6l2.3-20.5l-7.5,19.9
				l-5.1-0.6l-2.8-21.1l-2.3,20.5L276.5,687.7z"/>
			<path fill="#27649B" d="M313.9,690.1l-2.6-25.9l5.3-0.5l2.2,21.5l13.1-1.3l0.4,4.4L313.9,690.1z"/>
			<path fill="#27649B" d="M339.8,687l4.7-15.7l-11.4-9.7l5.9-1.8l7.4,6.6l2.5-9.5l5.9-1.7l-4.2,14.5l12.4,10.4l-6.1,1.8l-8.2-7
				l-3,10.4L339.8,687z"/>
			<path fill="#27649B" d="M377.5,673.4l-20.2-19.1l5.1-2.6l14.7,14.3l-3.1-20.2l5-2.5l3.5,27.6L377.5,673.4z"/>
			<path fill="#27649B" d="M397.4,662.1l-14.6-21.8l4.4-3l14.6,21.8L397.4,662.1z"/>
		</g>
		<g>
			<g>
				<polygon fill="#FACA32" points="188.6,351.7 191.2,348.4 193.8,351.7 206.6,367.8 218.2,324.8 175.5,324.8 172.6,372.1 				"/>
				<path fill="#27649B" d="M168.6,382.5l22.6-28.7l16.9,21.2l14.5-53.6h-50.2L168.6,382.5z M218.2,324.8l-11.6,43l-12.8-16.1
					l-2.6-3.3l-2.6,3.3l-16,20.3l2.9-47.3H218.2z"/>
			</g>
			<g>
				<polygon fill="#FACA32" points="424.6,351.7 440.6,372.1 437.7,324.8 395,324.8 406.6,367.8 419.4,351.7 422,348.4 				"/>
				<path fill="#27649B" d="M440.8,321.4h-50.2l14.5,53.6l16.9-21.2l22.6,28.7L440.8,321.4z M406.6,367.8l-11.6-43h42.7l2.9,47.3
					l-16-20.3l-2.6-3.3l-2.6,3.3L406.6,367.8z"/>
			</g>
			<g>
				<path fill="#FACA32" d="M456.3,335.2c-7.8-43.3-24.1-82.7-47.2-114c-29-39.3-65.4-60.9-102.5-60.9c-37.1,0-73.4,21.6-102.5,60.9
					c-23.1,31.3-39.4,70.6-47.2,114h52.5c0.6-34.9,10.5-67.6,28.1-92.4c18.4-26,42.9-40.3,69.1-40.3c26.2,0,50.7,14.3,69.1,40.3
					c17.6,24.8,27.5,57.5,28.1,92.4H456.3z"/>
				<path fill="#27649B" d="M411.8,219.3c-29.7-40.1-67-62.2-105.1-62.2c-38.1,0-75.5,22.1-105.1,62.2
					c-24.3,32.9-40.9,74.1-48.5,119.3h59.8c0-73.3,42-132.7,93.9-132.7c51.8,0,93.9,59.4,93.9,132.7h59.8
					C452.7,293.4,436.1,252.2,411.8,219.3z M306.6,202.6c-26.2,0-50.7,14.3-69.1,40.3c-17.6,24.8-27.5,57.5-28.1,92.4h-52.5
					c7.8-43.3,24.1-82.7,47.2-114c29-39.3,65.4-60.9,102.5-60.9c37,0,73.4,21.6,102.5,60.9c23.1,31.3,39.4,70.6,47.2,114h-52.5
					c-0.6-34.9-10.5-67.6-28.1-92.4C357.3,216.9,332.8,202.6,306.6,202.6z"/>
			</g>
		</g>
		<g>
			<path fill="#27649B" d="M203.4,301.8l-22.5,3.3l0.9-4.6l16.6-2.2l-14.5-8.3l0.9-4.5l19.5,11.8L203.4,301.8z"/>
			<path fill="#27649B" d="M206.8,286.4l-20.4-6.7l4.9-15.1l3.4,1.1l-3.6,11l4.5,1.5l3.3-10.2l3.4,1.1l-3.3,10.2l5.6,1.8l3.7-11.4
				l3.4,1.1L206.8,286.4z"/>
			<path fill="#27649B" d="M213.6,266.4l-19.3-9.3l3.9-8.2c1-2.1,1.9-3.5,2.7-4.3c0.8-0.8,1.8-1.2,2.9-1.4c1.2-0.1,2.3,0.1,3.5,0.6
				c1.5,0.7,2.4,1.7,3,3c0.5,1.3,0.5,2.9-0.1,4.7c0.9-0.6,1.8-1,2.6-1.3c0.9-0.3,2.3-0.5,4.2-0.7l4.9-0.5l-2.2,4.7l-5.6,0.8
				c-2,0.3-3.3,0.5-3.8,0.7c-0.6,0.2-1,0.4-1.4,0.8c-0.3,0.3-0.7,1-1.2,1.9l-0.4,0.8l8.1,3.9L213.6,266.4z M204.3,257.1l1.4-2.9
				c0.9-1.9,1.4-3.1,1.5-3.6c0.1-0.5,0-1-0.3-1.5c-0.3-0.5-0.7-0.8-1.3-1.1c-0.6-0.3-1.3-0.4-1.8-0.2c-0.6,0.2-1.1,0.5-1.5,1.1
				c-0.2,0.3-0.7,1.2-1.4,2.8l-1.5,3L204.3,257.1z"/>
			<path fill="#27649B" d="M224,246.2l-18.2-11.3l2.3-3.7l18.2,11.3L224,246.2z"/>
			<path fill="#27649B" d="M232.2,234.1l-14.1-10.9l-3.9,5l-2.9-2.2l10.5-13.5l2.9,2.2l-3.9,5l14.1,10.9L232.2,234.1z"/>
			<path fill="#27649B" d="M253.9,211.2l-3.4,3.2l-4.7-2.3l-6.2,5.9l2,4.8l-3.3,3.1l-8.6-21.4l3.3-3.1L253.9,211.2z M242.2,210.5
				l-7.6-3.8l3.3,7.8L242.2,210.5z"/>
			<path fill="#27649B" d="M252,204.1l3.4-2.5c0.9,1.1,1.9,1.7,2.9,1.9c1,0.2,2.1-0.1,3.2-0.8c1.2-0.7,1.9-1.5,2.2-2.4
				c0.3-0.9,0.2-1.6-0.2-2.3c-0.3-0.4-0.6-0.7-1.1-0.9c-0.4-0.2-1-0.1-1.8,0c-0.5,0.1-1.7,0.4-3.5,1c-2.3,0.7-4,0.9-5.3,0.7
				c-1.7-0.3-3-1.2-3.9-2.7c-0.6-0.9-0.8-2-0.8-3.1c0-1.1,0.4-2.2,1.2-3.2c0.7-1,1.8-2,3.2-2.8c2.3-1.4,4.3-1.9,6.1-1.6
				c1.8,0.3,3.2,1.3,4.3,2.9l-3.6,2.4c-0.7-0.9-1.5-1.3-2.3-1.4c-0.8-0.1-1.7,0.2-2.7,0.8c-1.1,0.7-1.8,1.4-2.1,2.2
				c-0.2,0.5-0.2,1,0.1,1.5c0.3,0.4,0.7,0.7,1.2,0.8c0.7,0.1,2.1-0.2,4.1-0.8c2.1-0.7,3.7-1,4.8-1.1c1.1-0.1,2.2,0.1,3.2,0.6
				s1.8,1.3,2.5,2.5c0.6,1.1,0.9,2.2,0.9,3.5c0,1.3-0.4,2.5-1.2,3.5c-0.8,1.1-2,2.1-3.6,3.1c-2.3,1.4-4.4,1.9-6.3,1.6
				C255.1,207.1,253.4,206,252,204.1z"/>
			<path fill="#27649B" d="M283.8,196.4l-5.5-20.7l4.2-1.1l5.5,20.7L283.8,196.4z"/>
			<path fill="#27649B" d="M292.8,193.8l-1.4-21.4l4.2-0.3l9.7,13.7l-0.9-14.3l4-0.3l1.4,21.4l-4.3,0.3l-9.5-13.4l0.9,14
				L292.8,193.8z"/>
			<path fill="#27649B" d="M339.9,191.5l3.6,2.6c-1.4,2-2.9,3.3-4.7,3.9c-1.8,0.6-3.8,0.5-5.9-0.2c-2.7-0.9-4.6-2.6-5.7-5
				c-1.1-2.4-1.1-5.2-0.1-8.4c1.1-3.4,2.9-5.7,5.3-7c2.4-1.3,5-1.5,7.8-0.5c2.5,0.8,4.3,2.2,5.3,4.2c0.6,1.2,0.9,2.7,0.8,4.4
				l-4.4-0.4c0.1-1.1-0.1-2.1-0.7-3c-0.6-0.9-1.4-1.5-2.5-1.8c-1.5-0.5-2.9-0.4-4.2,0.4c-1.3,0.8-2.4,2.4-3.2,4.8
				c-0.9,2.6-1,4.6-0.4,6c0.6,1.4,1.6,2.3,3.1,2.8c1.1,0.4,2.1,0.3,3.2-0.1C338.1,193.8,339,192.9,339.9,191.5z"/>
			<path fill="#27649B" d="M361.5,212.8l-4-2.6l1.1-5.1l-7.2-4.7l-4.1,3.1l-3.9-2.5l18.7-13.5l3.8,2.5L361.5,212.8z M359.4,201.4
				l1.8-8.3l-6.8,5.1L359.4,201.4z"/>
			<path fill="#27649B" d="M363.7,215l15.2-15.1l6.4,6.5c1.6,1.6,2.7,2.9,3.1,3.9c0.5,1,0.6,2.1,0.3,3.2c-0.3,1.1-0.8,2.2-1.7,3
				c-1.1,1.1-2.4,1.7-3.8,1.8c-1.4,0.1-2.9-0.5-4.4-1.6c0.3,1,0.4,2,0.4,2.9c0,0.9-0.3,2.3-0.7,4.2l-1.1,4.8l-3.7-3.7l1.1-5.5
				c0.4-2,0.6-3.2,0.6-3.8c0-0.6-0.1-1.1-0.3-1.6c-0.2-0.4-0.7-1-1.4-1.7l-0.6-0.6l-6.3,6.3L363.7,215z M375.5,209.3l2.3,2.3
				c1.5,1.5,2.4,2.3,2.9,2.6c0.5,0.2,1,0.3,1.5,0.2c0.5-0.1,1-0.4,1.4-0.8c0.5-0.5,0.8-1.1,0.8-1.6c0-0.6-0.1-1.2-0.6-1.8
				c-0.2-0.3-0.9-1-2.2-2.3l-2.4-2.4L375.5,209.3z"/>
			<path fill="#27649B" d="M379.1,231.6l17-13l2.6,3.4l-17,13L379.1,231.6z"/>
			<path fill="#27649B" d="M387.5,243.5l15.2-9.3l-3.3-5.4l3.1-1.9l8.9,14.5l-3.1,1.9l-3.3-5.4l-15.2,9.3L387.5,243.5z"/>
			<path fill="#27649B" d="M401.8,271.8l-1.9-4.3l3.7-3.7L400,256l-5.2,0.4l-1.9-4.2l23-1.2l1.9,4.2L401.8,271.8z M406.3,261l6-6
				l-8.4,0.6L406.3,261z"/>
			<path fill="#27649B" d="M403.6,277.7l17-5.5l-2-6.1l3.5-1.1l5.2,16.2l-3.4,1.1l-2-6l-17,5.5L403.6,277.7z"/>
			<path fill="#27649B" d="M407.8,291.8l21-4.2l3.2,15.6l-3.6,0.7l-2.3-11.3l-4.7,0.9l2.1,10.6l-3.5,0.7l-2.1-10.6l-5.7,1.2
				l2.4,11.7l-3.5,0.7L407.8,291.8z"/>
		</g>
	</g>
	<g>
		<g>
			<path fill="#27649B" d="M282.3,262.4l-1.8,0.8l15.6,36.2c0.6-0.3,1.2-0.5,1.9-0.8L282.3,262.4z"/>
			<path fill="#27649B" d="M272.8,267.4l-1.7,1.1l21.6,32.8c0.6-0.4,1.1-0.7,1.7-1L272.8,267.4z"/>
			<path fill="#27649B" d="M303.1,257.9l-2,0.1l2.3,39.4c0.7-0.1,1.3-0.1,2-0.2L303.1,257.9z"/>
			<path fill="#27649B" d="M264.3,273.8l-1.5,1.4l26.8,28.4c0.5-0.4,1-0.9,1.6-1.3L264.3,273.8z"/>
			<path fill="#27649B" d="M292.5,259.3l-1.9,0.5l9.1,38.4c0.6-0.2,1.3-0.3,2-0.5L292.5,259.3z"/>
			<path fill="#27649B" d="M257.1,281.7l-1.2,1.6l31,23.1c0.4-0.5,0.9-1,1.3-1.5L257.1,281.7z"/>
			<path fill="#27649B" d="M281.5,319.5l-37,2.2l0.1,2l36.8-2.2C281.4,320.8,281.4,320.2,281.5,319.5z"/>
			<path fill="#27649B" d="M247.2,300.6l-0.6,1.9l36.2,10.8c0.2-0.6,0.5-1.2,0.8-1.9L247.2,300.6z"/>
			<path fill="#27649B" d="M251.3,290.7l-0.9,1.8l34.2,17.1c0.3-0.6,0.7-1.1,1.1-1.7L251.3,290.7z"/>
			<path fill="#27649B" d="M357.3,286.2l-1.1-1.7L325,305.2c0.4,0.5,0.9,1,1.3,1.6L357.3,286.2z"/>
			<path fill="#27649B" d="M244.9,311l-0.2,2l37.1,4.3c0.1-0.7,0.3-1.3,0.4-2L244.9,311z"/>
			<path fill="#27649B" d="M350.9,277.8l-1.4-1.5l-27.6,26c0.5,0.4,1,0.9,1.5,1.3L350.9,277.8z"/>
			<path fill="#27649B" d="M313.7,258.4l-2-0.2l-4.5,39c0.7,0,1.3,0,2,0.1L313.7,258.4z"/>
			<path fill="#27649B" d="M366.8,316.5l-0.1-2l-36.3,2.1c0.1,0.7,0.2,1.3,0.2,2L366.8,316.5z"/>
			<path fill="#27649B" d="M362.3,295.7l-0.8-1.8l-34,14.7c0.3,0.6,0.7,1.2,1,1.8L362.3,295.7z"/>
			<path fill="#27649B" d="M324.1,260.7l-1.9-0.6L311,297.5c0.7,0.1,1.3,0.3,2,0.4L324.1,260.7z"/>
			<path fill="#27649B" d="M343,270.5l-1.6-1.2l-22.9,30.7c0.6,0.3,1.2,0.6,1.7,1L343,270.5z"/>
			<path fill="#27649B" d="M334,264.8l-1.8-0.9l-17.4,34.6c0.6,0.2,1.3,0.5,1.9,0.7L334,264.8z"/>
			<path fill="#27649B" d="M359.9,347.4l0.9-1.8l-32.1-16.1c-0.3,0.6-0.6,1.2-0.9,1.8L359.9,347.4z"/>
			<path fill="#27649B" d="M322.3,338.2l24.6,26.1l1.5-1.4l-24.6-26.1C323.3,337.3,322.8,337.7,322.3,338.2z"/>
			<path fill="#27649B" d="M329,375.7l1.8-0.8l-14.2-33c-0.6,0.3-1.2,0.6-1.8,0.8L329,375.7z"/>
			<path fill="#27649B" d="M308.2,380.3l2-0.1l-2.1-35.8c-0.7,0.1-1.3,0.1-2,0.1L308.2,380.3z"/>
			<path fill="#27649B" d="M318.8,378.9l1.9-0.5l-8.3-34.9c-0.6,0.2-1.3,0.3-1.9,0.5L318.8,378.9z"/>
			<path fill="#27649B" d="M338.5,370.8l1.7-1.1l-19.7-30c-0.5,0.4-1.1,0.8-1.7,1.1L338.5,370.8z"/>
			<path fill="#27649B" d="M364,337.6l0.6-1.9l-34.5-10.3c-0.1,0.7-0.3,1.3-0.5,1.9L364,337.6z"/>
			<path fill="#27649B" d="M330.5,323l35.8,4.2l0.2-2l-35.9-4.2C330.7,321.7,330.6,322.3,330.5,323z"/>
			<path fill="#27649B" d="M354.2,356.4l1.2-1.6l-28.8-21.4c-0.4,0.5-0.8,1.1-1.2,1.6L354.2,356.4z"/>
			<path fill="#27649B" d="M329.9,314.3l35.5-8.4L365,304l-35.7,8.5c0.2,0.5,0.4,1,0.5,1.5C329.9,314.1,329.9,314.2,329.9,314.3z"/>
			<path fill="#27649B" d="M253.9,351.9l1.1,1.7l30.1-19.8c-0.4-0.6-0.7-1.1-1-1.7L253.9,351.9z"/>
			<path fill="#27649B" d="M260.4,360.4l1.4,1.5l26.1-24.6c-0.5-0.5-0.9-1-1.3-1.5L260.4,360.4z"/>
			<path fill="#27649B" d="M268.3,367.6l1.6,1.2l21.4-28.7c-0.5-0.4-1.1-0.8-1.6-1.2L268.3,367.6z"/>
			<path fill="#27649B" d="M249,342.4l0.8,1.8l33.2-14.3c-0.2-0.6-0.5-1.2-0.7-1.9L249,342.4z"/>
			<path fill="#27649B" d="M245.8,332.2l0.5,1.9l35.5-8.4c-0.1-0.7-0.2-1.3-0.3-2L245.8,332.2z"/>
			<path fill="#27649B" d="M277.3,373.4l1.8,0.9l16.1-32c-0.6-0.3-1.2-0.6-1.8-0.9L277.3,373.4z"/>
			<path fill="#27649B" d="M297.5,379.8l2,0.2l4.2-35.6c-0.7,0-1.3-0.1-2-0.2L297.5,379.8z"/>
			<path fill="#27649B" d="M287.1,377.5l1.9,0.6l10.3-34.3c-0.7-0.2-1.3-0.3-1.9-0.6L287.1,377.5z"/>
		</g>
		<g id="XMLID_3_">
			<g>
				<g id="XMLID_4_">
					<g>
						<path fill="#FFFFFF" d="M436.4,463c0.2,0.9,0.6,1.8,0.4,3.2c-1.6,1.1-4.8,0.9-6-0.4C431.1,463.3,433.7,461.7,436.4,463z"/>
						<path fill="#FFFFFF" d="M432.4,447.8c-1.4-7.3-5.4-13.1-4.4-20.8c1-7.8,8-14.6,9.6-21.6c0.5,0.1,0.6,0.7,1.2,0.8
							c5.5,9.5,1.4,23.6-2.4,33.2C435.1,442.5,434.8,446.1,432.4,447.8z"/>
						<rect x="412" y="471.4" fill="#FFFFFF" width="2.8" height="0.8"/>
						<path fill="#FFFFFF" d="M379.7,475.3c0.3-0.9,1-1.4,2.4-1.2C382.1,475.5,380.6,476.2,379.7,475.3z"/>
						<path fill="#FFFFFF" d="M367.2,501.6c1.1-1.8,3.4-2.5,5.2-3.5c0.2,0.9-0.2,1.6-0.9,2.1c-1.2,1-3.4,1.6-4.7,2.3
							C367,502.2,367.1,501.9,367.2,501.6z"/>
						<path fill="#FFFFFF" d="M370.1,477.3c-1.1,3.1-6.3,5.4-9.2,3.2c1.7-1.6,4.6-3.3,7.5-3.4C368.9,477.2,369.5,477.2,370.1,477.3z
							"/>
						<path fill="#FFFFFF" d="M365.3,503.7c0.3,1.7-1.5,2.3-2.4,1.6v-1.2C363.8,504.1,364,503.4,365.3,503.7z"/>
						<path fill="#FFFFFF" d="M349.7,477.3c-2.5-2.1-4.6-4.7-4.4-9.6c0.5-0.1,0.6-0.7,1.2-0.8c4.9,1.1,11.8,3.6,14,8.8
							c-4-0.4-5.6-3.1-10.8-2.4C349.2,474.9,350.9,476.4,349.7,477.3z"/>
						<path fill="#FFFFFF" d="M337.7,584.8c-0.1-2.5,1.7-1.8,3.6-1.6c3.9-3.6,15.9-6,17.7,0.9c0.1,0.4,0.2,0.9,0.2,1.5
							c-3.5,1.7-7.1,3.3-10.8,4.8c-0.9-2.2-0.9-5.2-3.6-6.4C342,584.9,340.2,585.7,337.7,584.8z"/>
						<path fill="#FFFFFF" d="M350.1,574.5c-1.7,4.7-9.8,6.7-14.8,5.6c-0.9-5,4.3-3.1,7.2-3.6C345.6,576,347.9,572.2,350.1,574.5z"
							/>
						<path fill="#FFFFFF" d="M336.9,466.2c4.2,2.7,9.8,7.5,7.6,14c-3.3,1.1-4.2-2.4-5.2-5.2C338.2,471.7,336.2,468.9,336.9,466.2z"
							/>
						<path fill="#FFFFFF" d="M334.1,573.6c0.1-6.6,7.1,0.4,0.8,0.8C334.7,574.1,334.5,573.7,334.1,573.6z"/>
						<path fill="#FFFFFF" d="M330.5,575.2c-0.5-0.5-0.5-1.9,0-2.4c1.4-0.1,2.1,0.6,2,2C332,575.2,331.4,575.4,330.5,575.2z"/>
						<path fill="#27649B" d="M436.8,466.2c0.2-1.4-0.2-2.2-0.4-3.2c-2.7-1.2-5.3,0.3-5.6,2.8C432,467.1,435.2,467.3,436.8,466.2z
							 M414.8,472.1v-0.8H412v0.8H414.8z M428,427c-1,7.7,3,13.5,4.4,20.8c2.4-1.7,2.7-5.3,4-8.4c3.8-9.6,7.9-23.7,2.4-33.2
							c-0.6-0.1-0.7-0.7-1.2-0.8C436,412.4,429.1,419.1,428,427z M382.1,474.1c-1.4-0.2-2.1,0.4-2.4,1.2
							C380.6,476.2,382.1,475.5,382.1,474.1z M332.1,492.1c-0.5-1.1-2.1-1.6-3.8-1.6v-1.1c0.7,0,1.5,0,2.2-0.1
							c5-0.4,10.6-2.4,15.6-3.6c5.5-1.3,11.7-1.3,14.4-5.2h0.4c2.9,2.2,8.1,0,9.2-3.2c-0.6-0.1-1.1-0.2-1.7-0.2l-0.1-2.2
							c4.7,0,10.5-3.9,15-4.8c13-2.6,27.5-0.5,42.4-2c-0.2-3.3,4.7-6.7,5.2-9.2c0.6-3-2.2-8.2-3.6-12.8c-2.2-7-5.2-17.7-2.4-26
							c0.8-2.5,2.4-4.8,4-8c3.7-7.6,7.4-11.3,8-22c4.6,11,13.8,26.5,8,41.6c-1.3,3.5-4.1,6.7-5.6,10.4c-1.6,4.1-3.8,9.4-3.2,12.8
							c0.7,4.6,6.5,6.9,5.6,12c4-1.4,13.7-3.6,11.6,3.6c-3.3,2.2-9.4,1-14,1.2c-29,1.3-42.9,11.3-59.1,25.2
							c-2.2,1.9-4.5,3.7-6.8,5.5l-1.7-2.2c0.7-0.5,1.1-1.2,0.9-2.1c-1.8,1-4.2,1.7-5.2,3.5l-2.1-0.8c3.4-4.3,10.1-5.4,12.6-10.7
							c1.7,0.3,2.2-2.5,3.6-1.2c-0.2,2.1-2,2.5-2.8,4c4.5,0,5.5-3.5,5.6-6.8c0.6,0.7,1.7,1,3.2,0.8c0.1-2.9,3.5-2.6,5.2-4
							c0.1-1.2-1.2-2.8,0.4-3.2c1.2-0.2,1.8,0.3,1.6,1.6c3.8-1.8,6.5-4.7,10.8-6c0-1.1,0.2-2.6-0.4-3.2c-4.2-0.4-8.7,2.2-11.2,0
							c-0.6,0.7-0.2,2.5-1.2,2.8c-0.9,0.1-1.5,0-2-0.4c-1.8,2-2.7,5-6.4,5.2c-0.7-0.4-0.7-1.4-1.2-2c-2.2,0.7-4.5,1.4-5.6,3.2
							c-2.1-1.7-2.9,0.9-6,0.4c-0.7,1-1.5,2-1.2,4c-1.2,0.2-3.1,2-3.6,1.6c-1-1,0.3-1.7,0-3.2c-3.8-1.7-5.9,1.5-6.8,4
							c-1.3-1.1-3.8-1-6-1.2c-1.1,1-1.4,2.9-2.8,3.6c-2.5,0.1-3.2-1.5-4.8-2.4c-2.2,0.3,0,2.8-1.6,3.2c-1.8,0.1-1.8-1.6-2.8-2.4
							c-1.9-0.2-0.7,2.8-2.4,2.8c-0.4-0.7-0.7-1.4-2-1.2c-0.2,0.8-0.1,1.7-1.2,1.6c-1,0.1-1-0.9-1.6-1.2
							C333.1,490.5,333.2,491.9,332.1,492.1z"/>
						<path fill="#FFFFFF" d="M322.9,454.6c2.2,0.1,2.4,2,2,3.6C322.8,458.4,323,456.3,322.9,454.6z"/>
						<path fill="#FFFFFF" d="M317.3,558.9c3.3-3.6,5.6-1.2,6.8,2.4c0.8,2.5,1.1,5.6,0.8,7.6c-1,0.9-2.9,0.9-4.8,0.8
							c-0.7-1.2-1.3-2.6-1.7-4.2C317.9,563.4,317.6,561.1,317.3,558.9z"/>
						<path fill="#FFFFFF" d="M322.5,481.4c-4.1-1.2-4.3-16.4-1.2-17.2c5-1.3,6.1,10.5,6.8,15.2C326,481.1,324.5,481.9,322.5,481.4z
							"/>
						<path fill="#FFFFFF" d="M322.1,572.9c2,5.6-7.7,7.5-11.6,4.8C310.1,572.1,318.2,571.4,322.1,572.9z"/>
						<path fill="#FFFFFF" d="M319.3,459c-1.3-0.5-1.6-3.2-0.4-4C321,454.8,320.2,458.5,319.3,459z"/>
						<path fill="#FFFFFF" d="M317.3,551.7c-4.1-1.7-1.4-10.3-1.6-14h1.2C318.7,540.9,320.1,548.5,317.3,551.7z"/>
						<path fill="#27649B" d="M315.3,329.2c28.7,2.8,44,19.7,63.2,31.9c3.7-13.7,8-26.9,11.2-41.2c-20.9,3.2-52,6.5-68-3.3l0.8-1.4
							c5.9,3,19.8,4.5,24,4.5c4.2,0,19.5,0.8,46.9-3.8c-4.5,16.1-13.7,48.9-13.7,48.9l-13.2,2.8c-5.7-6.1-18.4-18.5-18.4-18.5
							c-4.1-4.2-13.2-10.8-17.7-12.4c-4-1.5-12.7-3.8-13.7-3.8c-0.1,0.2-0.2,0.5-0.4,0.9l-2.3-0.8
							C314.4,331.5,314.8,330.4,315.3,329.2z"/>
						<path fill="#FFFFFF" d="M313.7,567.2c0.1-1.1,0.6-2.2,1.2-2.7c0.9,0.1,1.3,0.7,1.5,1.5c0.2,1,0.1,2.4,0.1,3.7
							C314.2,570.2,313.6,568.7,313.7,567.2z"/>
						<path fill="#FFFFFF" d="M312.9,479.8c-3.9-0.4-2.7-12.9,1.2-14.4C315.5,467.8,317.1,480.1,312.9,479.8z"/>
						<path fill="#27649B" d="M334.9,574.5c6.3-0.4-0.7-7.5-0.8-0.8C334.5,573.7,334.7,574.1,334.9,574.5z M342.5,576.5
							c-2.9,0.4-8.1-1.4-7.2,3.6c4.9,1.2,13.1-0.8,14.8-5.6C347.9,572.2,345.6,576,342.5,576.5z M332.5,574.9c0.1-1.4-0.6-2.1-2-2
							c-0.5,0.5-0.5,1.9,0,2.4C331.4,575.4,332,575.2,332.5,574.9z M322.1,572.9c-4-1.5-12.1-0.7-11.6,4.8
							C314.4,580.4,324.1,578.5,322.1,572.9z M304.1,579.7c1.3-3.6-0.2-7.5-3-7.5l3.4-2.5c0.9,0.4,2,0.7,3.2,0.8
							c0.8-0.7,1.4-2.1,1.5-3.5l4.5,0.2c-0.2,1.6,0.5,3.1,2.8,2.5c0-1.3,0.1-2.6-0.1-3.7l2-0.5c0.4,1.5,0.9,3,1.7,4.2
							c1.9,0.1,3.8,0.1,4.8-0.8c0.3-2.1,0-5.1-0.8-7.6l2.1-0.2c0.8,2,2.4,3.4,3.9,5.5c4.7,0.4,8.6,1.7,11.2,4.4
							c4.9,0.2,8.5-0.7,11.2,1.2c1.7,1.2,1.6,3.5,2.8,5.2c2,2.7,6.5,3.5,6.4,6.8l-2.6,0.1c-1.9-6.9-13.9-4.5-17.7-0.9
							c-1.9-0.2-3.7-0.9-3.6,1.6c2.5,0.8,4.3,0.1,7.2-0.8c2.7,1.2,2.7,4.2,3.6,6.4l0.6,2.3c-5,1.3-10.2,2.3-14.6,3.3
							c-5.9,1.3-12,1.5-17.8,2l-0.1-1.6c3.2-1.3,0.4-5.6,0.4-8.4c1.9-1.4,4.7,0,6.8,0.8c0.3,2.3,0.2,5.1,2.4,5.6
							c1.7-2.2-2.5-5.4,0.4-6.4c2.6,0.5,1.9,4.5,4,5.6c2.1-1.5-0.7-4-1.2-5.6c1-1.7,3.5-1.8,3.2-4.8c-3.7-1.7-6.2,0.6-10.4,1.2
							c-6.3,0.9-13.6-0.2-20.1-0.2l0.1-4.1C302.8,580.1,303.4,580,304.1,579.7z"/>
						<path fill="#FFFFFF" d="M312.9,456.2c-1.4-0.4-1.3-2.6-0.4-3.2C313.9,453.1,314.1,455.6,312.9,456.2z"/>
						<path fill="#FFFFFF" d="M298.5,518.5c-0.8-4.7-2.5-7.9-1.6-13.2c3-0.7,5-2.4,7.6-3.6v-3.2c2-1.2,3.9-2.4,4.8-4.8
							c2.1,0.8,1.4,4.5,3.6,5.2c3.2-0.7,0.5-5.3,4.8-5.2c0,1.2,0.5,1.9,0.8,2.8c2.6-0.7-0.4-3,0.8-4.4c3.1-0.5,1.6,3.7,4,4
							c0.8-0.5,2.2-0.5,2.4-1.6c0.2-1.5-0.9-1.5-0.8-2.8c0.6-0.8,2-1.2,3.4-1.2c1.6,0,3.3,0.5,3.8,1.6c1.1-0.2,1-1.7,2.4-1.6
							c0.6,0.3,0.6,1.3,1.6,1.2c1,0.1,1-0.8,1.2-1.6c1.2-0.2,1.6,0.5,2,1.2c1.7,0,0.5-3,2.4-2.8c1,0.7,0.9,2.5,2.8,2.4
							c1.6-0.4-0.6-2.9,1.6-3.2c1.5,0.8,2.3,2.5,4.8,2.4c1.4-0.7,1.7-2.6,2.8-3.6c2.2,0.2,4.7,0.1,6,1.2c0.9-2.5,3-5.8,6.8-4
							c0.3,1.5-1,2.2,0,3.2c0.5,0.4,2.3-1.3,3.6-1.6c-0.3-2,0.4-3,1.2-4c3.1,0.5,3.9-2.1,6-0.4c1.1-1.8,3.4-2.5,5.6-3.2
							c0.5,0.6,0.5,1.6,1.2,2c3.7-0.2,4.5-3.2,6.4-5.2c0.4,0.3,1.1,0.5,2,0.4c1-0.3,0.5-2.1,1.2-2.8c2.5,2.2,6.9-0.4,11.2,0
							c0.6,0.6,0.4,2,0.4,3.2c-4.3,1.3-7,4.2-10.8,6c0.2-1.3-0.3-1.8-1.6-1.6c-1.6,0.4-0.4,2-0.4,3.2c-1.7,1.4-5.1,1-5.2,4
							c-1.5,0.2-2.6-0.1-3.2-0.8c-0.1,3.3-1.1,6.8-5.6,6.8c0.7-1.5,2.6-1.9,2.8-4c-1.3-1.3-1.9,1.5-3.6,1.2
							c-2.5,5.3-9.1,6.3-12.6,10.7c-0.2,0.3-0.4,0.6-0.6,0.9c-4.9,0.1-5.7,4.2-10,4.8c-1.3,1.9-2.8,3.6-4.8,4.8
							c-3.3,0.3-6,0-9.2,1.2c-4.8,1.7-6.9,5.3-10.8,6.8c-8.1,3.1-16.6,0.2-24.8,1.6c-0.3-0.9-0.8-1.5-0.8-2.8
							C301.9,517.9,300.4,518.3,298.5,518.5z"/>
						<path fill="#FFFFFF" d="M320.1,526.5c1.2,9.6-9.1,4.4-14.8,4.4c0.6-2.7,4.1-1.5,6.4-2C314.9,528.3,316.2,526.5,320.1,526.5z"
							/>
						<path fill="#FFFFFF" d="M308.5,551.7c-1.4,0.2-1.9-0.4-2.8-0.8c-0.2-3.1,1.2-7.7,2-11.2C310.1,541.3,308.8,548.7,308.5,551.7z
							"/>
						<path fill="#FFFFFF" d="M304.5,569.7c0.6-2.7,1-5.7,4-6c0.6,0.9,0.8,2.1,0.7,3.3c-0.1,1.4-0.7,2.8-1.5,3.5
							C306.5,570.4,305.5,570,304.5,569.7z"/>
						<path fill="#27649B" d="M306.5,230.4c-0.9,29.1,1.2,60-8,82.3c-1.6-0.8-3.1-1.5-4.7-2.3l0.7-1.3c8.2-19.3,4.4-62.5-1.6-77.1
							l12-6c0,0,9.8,2.1,14.4,3.2c13.1,3.1,29.1,7.5,41.9,10c-5.5,11-12,21-18.4,31.2c-0.3,1.2-10.3,17.2-14.1,26.5
							c-1.4,2.9-4.6,13.2-6.3,18.2l-0.8,1.4c-0.5-0.3-1.1-0.7-1.6-1c7.3-29.6,23.7-50.1,36.8-73.9
							C340.2,237.8,323.1,234.3,306.5,230.4z"/>
						<path fill="#FFFFFF" d="M305.3,455.8c1.3,0.2,1.6,2.2,0.4,2.8C303.8,458.8,304.6,456.2,305.3,455.8z"/>
						<path fill="#FFFFFF" d="M305.3,478.5c-4.2,0.6-5.6-1.6-7.6-3.2c1.5-5.2,2.2-13.1,10-10.8C308.3,468.8,307.7,474.9,305.3,478.5
							z"/>
						<path fill="#FFFFFF" d="M293.3,585.2c2.6-0.8,5.5-1.1,8.7-1c6.5,0,13.8,1.1,20.1,0.2c4.2-0.6,6.7-2.9,10.4-1.2
							c0.4,3-2.2,3.1-3.2,4.8c0.4,1.5,3.3,4,1.2,5.6c-2.1-1-1.3-5-4-5.6c-2.9,1,1.3,4.2-0.4,6.4c-2.2-0.5-2.1-3.3-2.4-5.6
							c-2.1-0.7-4.9-2.2-6.8-0.8c0,2.7,2.8,7.1-0.4,8.4c-2.3-0.8-0.1-6-2.4-6.8c-3.6,0.8,0.4,5.4-1.6,6.8c-2.5-0.5-1.8-4-2-6.8
							c-0.7,0-1-0.3-1.2-0.8c-1,0.2-1.4,1-2,1.6c1.1,1.4,1.7,4.6,0.8,6.8c-3-0.5-1.8-5.4-2.8-8c-2.9,0.7-1,5.4-1.2,8
							c-2.5,0.6-8,0.9-10-0.4C295.4,592.8,295,588.4,293.3,585.2z"/>
						<path fill="#FFFFFF" d="M298.5,573.3c0.9-0.8,1.8-1.1,2.6-1.1c2.7,0,4.3,3.8,3,7.5c-0.7,0.3-1.4,0.5-2,0.5
							C299.1,580.1,297.2,576.5,298.5,573.3z"/>
						<path fill="#FFFFFF" d="M298,554.9c-0.5-0.7-0.7-1.7-0.2-2.9c6.2,0.4,18.7,4.7,24-0.8h1.2c-0.1,2.5-2.9,3.9-6.3,4.8
							c-2.9,0.7-6.3,1-8.9,1.1C304.5,557.4,299.5,557.1,298,554.9z"/>
						<path fill="#FFFFFF" d="M291,596.4c-2.5-1,0.2-3,0.4-4.8C293.2,592.2,291.9,596,291,596.4z"/>
						<path fill="#FFFFFF" d="M289,578.1c-7.5,1.4-4.7-8.7,1.2-5.6C290.9,574.3,290.1,576.9,289,578.1z"/>
						<path fill="#FFFFFF" d="M258.6,593.6c8.2,0.3,15.7,4.6,25.6,5.6c7.5,0.8,14.2,1.7,22.4,0.8c1.2-0.2,2.3-1,3.6-1.2
							c2.1-0.4,4.3-0.6,6.5-0.8c5.9-0.5,11.9-0.6,17.8-2c4.4-1,9.6-2,14.6-3.3c4.5-1.2,8.7-2.7,11.8-4.7c0.9-0.6,2.4-1.6,4,0
							c0.6,8.4-11.7,7.2-16.8,11.2c-6.6,0.2-12.9,4.5-19.2,2.4c-5.9,3.1-16.4,2.3-25.6,2.8c-11.4,0.5-23.5,0.6-34.8-2
							C263.3,601.2,256.7,599.4,258.6,593.6z"/>
						<path fill="#FFFFFF" d="M282.6,470.9c0.3-2.3,2.1-3.2,4.4-3.6c1,1.7-1.3,3.1-1.6,4.8C284,472.2,283.2,471.6,282.6,470.9z"/>
						<path fill="#FFFFFF" d="M279.4,467.4c0.4,2-2.2,2.7-2,0.4C277.8,467.4,278.4,467.2,279.4,467.4z"/>
						<path fill="#FFFFFF" d="M272.2,578.8c1-0.1,1.3,0.6,1.2,1.6C272.3,580.6,272.1,579.9,272.2,578.8z"/>
						<path fill="#FFFFFF" d="M273,512.1c-3-4.4,1.6-9.8,0.4-16.8c0.8-0.9,1.3-2.1,3.2-2c1.8-3.1,0.5-11.1,5.1-10.5
							c0.2,0,0.4,0,0.5,0.1c2.3,4.2-0.9,8.7-3.2,10.8c0.9,7.3-4.1,12.4-2.4,17.6c1.3,3.8,8.3,7.1,11.2,10.4
							c-5.7-0.2-11.6-0.1-11.2-6.4c-0.9-1.9-2.5-1.8-3.4-2.9C273.1,512.3,273,512.2,273,512.1z"/>
						<path fill="#27649B" d="M345.3,467.8c-0.2,4.9,1.9,7.4,4.4,9.6c1.2-1-0.5-2.4,0-4c5.1-0.8,6.8,2,10.8,2.4
							c-2.2-5.2-9.1-7.7-14-8.8C345.9,467,345.8,467.6,345.3,467.8z M344.5,480.1c2.2-6.5-3.4-11.3-7.6-14c-0.7,2.8,1.2,5.5,2.4,8.8
							C340.3,477.8,341.1,481.3,344.5,480.1z M322.9,454.6c0.1,1.7-0.1,3.8,2,3.6C325.3,456.5,325.1,454.6,322.9,454.6z
							 M321.3,464.2c-3.1,0.8-2.9,16,1.2,17.2c2,0.6,3.4-0.2,5.6-2C327.4,474.7,326.4,462.9,321.3,464.2z M318.9,455
							c-1.2,0.8-0.9,3.4,0.4,4C320.2,458.5,321,454.8,318.9,455z M312.9,456.2c1.2-0.6,1-3-0.4-3.2
							C311.6,453.5,311.5,455.8,312.9,456.2z M314.1,465.4c-3.9,1.5-5.1,14-1.2,14.4C317.1,480.1,315.5,467.8,314.1,465.4z
							 M297.7,475.3c2,1.6,3.3,3.8,7.6,3.2c2.3-3.7,2.9-9.8,2.4-14C300,462.2,299.2,470.1,297.7,475.3z M282.6,470.9
							c0.7,0.6,1.4,1.2,2.8,1.2c0.2-1.7,2.6-3.1,1.6-4.8C284.7,467.8,282.9,468.6,282.6,470.9z M277.4,467.8c-0.2,2.3,2.4,1.6,2-0.4
							C278.4,467.2,277.8,467.4,277.4,467.8z M280.2,472.5c-4.1-1.7-7.9-4-11.3-5.1l0.6-1.9c0.7,0.4,1.4,0.8,1.9,1.4
							c2-1.2,5.5-0.9,7.6-2c4.7-4.5,4.7-13,6.4-21.2c7.7-37.9,16.5-77.9,28.6-111l2.3,0.8c-2.1,5.5-7.9,27.2-8.1,28c0,0,0,0,0-0.1
							c-8.3,31.3-15.1,64-21.2,97.5c4.6-0.3,5.9-5,8.8-7.2c2.3-1.8,4.9-2.6,8.4-3.6c2.9-3.6-0.7-9.6,2-13.6c7.8-4.9,13,4.8,8,10.8
							c1.1,3.1,4.4,2.4,6.8,3.2c5.8,1.9,10.8,6.3,14,11.2c5.9-1.3,7.8,2.9,11.2,4.8c2.5,1.4,7.5,1.8,10.8,3.6
							c4,2.2,7.5,6.5,10.8,6.8c0.2,0,0.4,0,0.6,0l0.1,2.2c-2.9,0.1-5.8,1.8-7.5,3.4h-0.4c-11.9,0.4-19.1,4.7-30.4,4
							c-11.9-0.7-25.2-2.2-35.2-6C290.1,476.7,285,474.5,280.2,472.5z M305.7,458.6c1.2-0.6,0.9-2.6-0.4-2.8
							C304.6,456.2,303.8,458.8,305.7,458.6z"/>
						<path fill="#FFFFFF" d="M269.8,585.2c-0.8,2.7-2.7,4.2-3.6,6.8C262.7,590,266.4,580.2,269.8,585.2z"/>
						<path fill="#FFFFFF" d="M263.8,466.9c1.6-0.3,3.3,0,5,0.5c3.5,1.1,7.2,3.4,11.3,5.1c4.8,2,10,4.2,14.8,6
							c10,3.8,23.3,5.3,35.2,6c11.3,0.7,18.4-3.6,30.4-4c-2.7,3.8-8.9,3.9-14.4,5.2c-5,1.2-10.6,3.2-15.6,3.6
							c-0.7,0.1-1.4,0.1-2.2,0.1c-5.2,0-12-1.2-17.8-2.1c-11.1-1.6-18.7-4-28.1-7c-2.1-0.7-4.3-1.4-6.7-2.1
							C270.5,476.5,258.1,473.2,263.8,466.9z"/>
						<path fill="#27649B" d="M291,596.4c0.9-0.4,2.2-4.2,0.4-4.8C291.2,593.5,288.4,595.4,291,596.4z M290.2,572.4
							c-5.9-3.1-8.7,7-1.2,5.6C290.1,576.9,290.9,574.3,290.2,572.4z M273.4,580.4c0.1-1-0.1-1.7-1.2-1.6
							C272.1,579.9,272.3,580.6,273.4,580.4z M269.8,585.2c-3.3-5.1-7.1,4.8-3.6,6.8C267.1,589.5,269,588,269.8,585.2z M268.6,605.2
							c-6.1-1.5-17.1-4.6-16.4-10.8c0.4-3.3,4.2-3.9,7.2-5.2c1.5-3.3,4.6-4.6,7.6-7.2c2.3-2,3.5-4.9,5.6-6c2.3-1.2,5-0.7,7.6-1.6
							c4.1-1.5,8.6-7.1,14.8-7.2c0.6-3.3,3.2-5.2,2.8-9.2c-0.1-1.1-0.5-2-1-2.8l1.2-0.3c1.6,2.2,6.5,2.4,9.8,2.3
							c2.6-0.1,5.9-0.4,8.9-1.1l0.7,2.7c0.3,2.3,0.6,4.6,1.1,6.6l-2,0.5c-0.2-0.8-0.6-1.4-1.5-1.5c-0.6,0.5-1.1,1.6-1.2,2.7
							l-4.5-0.2c0.1-1.2-0.1-2.4-0.7-3.3c-3,0.3-3.4,3.3-4,6l-3.4,2.5c-0.8,0-1.7,0.3-2.6,1.1c-1.3,3.2,0.5,6.9,3.6,6.9l-0.1,4.1
							c-3.2,0-6.1,0.2-8.7,1c1.6,3.2,2,7.5,0.8,11.6c2,1.3,7.4,1,10,0.4c0.1-2.6-1.7-7.3,1.2-8c1,2.6-0.2,7.4,2.8,8
							c0.9-2.2,0.3-5.3-0.8-6.8c0.6-0.6,1-1.4,2-1.6c0.1,0.5,0.5,0.8,1.2,0.8c0.2,2.7-0.5,6.3,2,6.8c1.9-1.3-2-6,1.6-6.8
							c2.3,0.7,0.1,6,2.4,6.8l0.1,1.6c-2.2,0.2-4.4,0.4-6.5,0.8c-1.3,0.2-2.3,1.1-3.6,1.2c-8.2,0.9-14.9,0-22.4-0.8
							c-9.9-1-17.4-5.3-25.6-5.6c-1.9,5.8,4.7,7.6,10,8.8c11.3,2.7,23.3,2.6,34.8,2c9.1-0.4,19.7,0.3,25.6-2.8
							c6.3,2.1,12.6-2.2,19.2-2.4c5.1-4,17.4-2.8,16.8-11.2c-1.6-1.6-3.1-0.6-4,0c-3,2-7.3,3.5-11.8,4.7l-0.6-2.3
							c3.7-1.5,7.3-3.1,10.8-4.8c0-0.5-0.1-1-0.2-1.5l2.6-0.1c1.7,0,3.6-0.1,4.8,0.4c7.1,10.3-12.5,16.2-23.2,19.2
							C320.7,609.9,292.7,611.2,268.6,605.2z"/>
						<path fill="#FFFFFF" d="M259,522.1c5.7,1.9,9.7,16.3,3.2,20c-1.8,1-7.8,1.5-8.4-2.4c1.7-2.3,7.7-0.3,8.4-3.6
							C263.1,529.7,258.3,526.9,259,522.1z"/>
						<path fill="#FFFFFF" d="M232.2,326.7c3.8-15.9,8.8-30.6,13.2-46c17.4,13.3,31.5,21.3,48.5,29.7c1.5,0.8,3.1,1.5,4.7,2.3
							c9.2-22.3,7.1-53.2,8-82.3c16.5,4,33.6,7.4,50.4,11.2c-13,23.9-29.5,44.3-36.8,73.9c0.5,0.4,1,0.7,1.6,1
							c16,9.9,47.1,6.5,68,3.3c-3.2,14.3-7.5,27.5-11.2,41.2c-19.2-12.2-34.5-29.1-63.2-31.9c-0.5,1.2-0.9,2.4-1.3,3.6
							c-12.1,33.1-20.9,73.1-28.6,111c-1.7,8.2-1.7,16.7-6.4,21.2c-2.1,1.1-5.6,0.8-7.6,2c-0.5-0.6-1.2-1-1.9-1.4
							c-5.1-2.4-13.5,0.4-9.2,7c-2.4,0.4-3.3,3.3-5.6,3.6c-0.6,0.1-1.4,0-2.4-0.4c-2.1-11.4,3.4-20.4,7.2-29.6
							c15.5-37.3,27.5-78.3,37.7-121C276.1,318.1,255.2,321.3,232.2,326.7z"/>
						<path fill="#27649B" d="M255.4,478.2c-0.2,0-0.4,0-0.5,0.1l-0.3-2c2.3-0.4,3.2-3.2,5.6-3.6c-4.3-6.6,4.1-9.4,9.2-7l-0.6,1.9
							c-1.7-0.5-3.4-0.8-5-0.5c-5.7,6.3,6.7,9.5,12,11.2c2.3,0.7,4.6,1.5,6.7,2.1l-0.8,2.5c-4.5-0.6-3.2,7.4-5.1,10.5
							c-1.9-0.1-2.4,1.1-3.2,2c1.2,7-3.4,12.3-0.4,16.8c0.1,0.1,0.1,0.2,0.2,0.2l-3.3,0.4c-2.7-3.4-5.8-7.1-6.1-11.4
							c-0.1-1.8,0.5-5.2,2-6.8c2-0.5,3.5,1,4.8,0c0.1-2.4-3-1.5-3.6-3.2c1.5-3.8,3.6-7,5.6-10.4c-2.7-4.5-7.9-1.6-10,0.4
							c-2.3,2.1-2.5,6.1-4,9.6c-0.3,0.6-1.8,1.4-2.4,2.8c-1.3,2.9-0.4,6.5-2,6.4c-0.3,0-0.6-0.2-0.8-0.5c-1.1-1.6,0.2-7,0.8-8.7
							c1.5-5,3.7-6.8,4-11.6c1.5-0.7,3.7-1.6,2.8-3.6C258.9,474.8,257.8,477.7,255.4,478.2z"/>
						<path fill="#27649B" d="M365.3,503.7c-1.2-0.3-1.5,0.4-2.4,0.4v1.2C363.7,506.1,365.6,505.4,365.3,503.7z M317.3,551.7
							c2.7-3.2,1.4-10.7-0.4-14h-1.2C315.9,541.4,313.2,549.9,317.3,551.7z M311.7,528.9c-2.3,0.4-5.8-0.7-6.4,2
							c5.6,0,16,5.3,14.8-4.4C316.2,526.5,314.9,528.3,311.7,528.9z M305.7,550.9c0.9,0.3,1.3,1,2.8,0.8c0.2-2.9,1.6-10.3-0.8-12
							C307,543.2,305.5,547.7,305.7,550.9z M255.4,510.1c-2.4-2.4-3.9-5.7-5.6-8.7l2.7-1.1c1,1.5,2.3,2.9,3.7,4.7
							c4.4,5.7,11.2,11.9,17.2,13.6c-0.5-1.8-1.9-3.7-3.5-5.8l3.3-0.4c0.9,1.1,2.5,1.1,3.4,2.9c-0.4,6.3,5.5,6.2,11.2,6.4
							c-2.8-3.3-9.9-6.5-11.2-10.4c-1.7-5.2,3.3-10.3,2.4-17.6c2.3-2.1,5.5-6.6,3.2-10.8c-0.2,0-0.4-0.1-0.5-0.1l0.8-2.5
							c9.3,3,17,5.4,28.1,7c5.8,0.9,12.6,2.1,17.8,2.1v1.1c-1.4,0-2.8,0.4-3.4,1.2c-0.1,1.3,1,1.3,0.8,2.8c-0.2,1.1-1.5,1.1-2.4,1.6
							c-2.4-0.3-0.9-4.5-4-4c-1.2,1.4,1.8,3.7-0.8,4.4c-0.3-0.9-0.8-1.6-0.8-2.8c-4.3-0.1-1.5,4.5-4.8,5.2c-2.2-0.7-1.4-4.4-3.6-5.2
							c-0.9,2.3-2.8,3.6-4.8,4.8v3.2c-2.6,1.2-4.6,2.9-7.6,3.6c-0.9,5.3,0.8,8.5,1.6,13.2c1.8-0.2,3.4-0.6,5.6-0.4
							c0,1.2,0.5,1.9,0.8,2.8c8.1-1.4,16.7,1.5,24.8-1.6c3.9-1.5,6-5.1,10.8-6.8c3.2-1.1,5.9-0.9,9.2-1.2c2-1.2,3.5-2.9,4.8-4.8
							c4.3-0.6,5.1-4.7,10-4.8c0.2-0.3,0.4-0.6,0.6-0.9l2.1,0.8c-0.1,0.3-0.3,0.5-0.4,0.9c1.3-0.7,3.5-1.3,4.7-2.3l1.7,2.2
							c-13.4,10.4-28.4,18.4-48.4,23.3c-3.1,5.2-6.8,13.3-1.6,19.6c1.4,1.7,3.9,1.8,4.4,4c0.6,2.5-1.7,4.7-2,7.2
							c-0.2,1.9,0,3.3,0.5,4.5l-2.1,0.2c-1.2-3.6-3.5-6-6.8-2.4l-0.7-2.7c3.4-0.9,6.2-2.4,6.3-4.8h-1.2c-5.2,5.5-17.8,1.2-24,0.8
							c-0.4,1.2-0.3,2.1,0.2,2.9l-1.2,0.3c-0.7-1.4-1.5-2.6-1-4.4c0.6-2.3,2.6-2.1,4.8-3.6c0.2-4,2.1-6.3,1.2-9.6
							c-1-3.7-7-5.5-6.8-10c-5.8-1-11.6-2-16.8-3.6c-1.7,9.2-2,19.9-2.8,30c-0.9,0.1-1.8,0.3-2.7,0.7l-1.7-3.1
							c0.9-9.6,1.2-19.8,2.4-29.2C266.5,518.8,260.3,515.1,255.4,510.1z"/>
						<path fill="#FFFFFF" d="M252.5,500.2c-0.2-0.2-0.4-0.5-0.5-0.7l1.4,0.2c0.2,0.3,0.4,0.4,0.8,0.5c1.6,0.1,0.7-3.5,2-6.4
							c0.6-1.4,2.1-2.2,2.4-2.8c1.5-3.5,1.7-7.5,4-9.6c2.1-2,7.3-5,10-0.4c-1.9,3.4-4.1,6.6-5.6,10.4c0.6,1.7,3.7,0.8,3.6,3.2
							c-1.3,1-2.8-0.5-4.8,0c-1.5,1.6-2.1,5-2,6.8c0.3,4.3,3.4,8,6.1,11.4c1.6,2,3,3.9,3.5,5.8c-6-1.7-12.8-7.9-17.2-13.6
							C254.8,503.1,253.6,501.7,252.5,500.2z"/>
						<path fill="#FFFFFF" d="M268.6,530.5c-2.1-13.8-21-19.6-30.9-25.6c-0.7-0.4-1.3-0.8-1.9-1.2c1.4-3.6,2.9-7.2,4.4-10.8
							c4.9,0.9,7.4,4.5,9.6,8.4c1.7,3,3.2,6.3,5.6,8.7c4.9,5,11.1,8.7,18,12.4c-1.2,9.3-1.5,19.6-2.4,29.2
							c-4.3-1.2-9.3-1.8-13.6-3.2c0.4-0.1,0.8-0.2,1.2-0.3C265.3,546.3,269.9,538.9,268.6,530.5z"/>
						<path fill="#FFFFFF" d="M246.6,489.3c0.9,0.1,0.2,1.7,0,2C245.2,491,246.1,489.9,246.6,489.3z"/>
						<path fill="#FFFFFF" d="M243,525.7c2.3,1.7,4.4,8.3,1.2,10.8C242,534.9,235.7,525.7,243,525.7z"/>
						<path fill="#FFFFFF" d="M238.2,544.1c-5.8-3.5-9.7-13.6-5.7-20c0.1-0.2,0.3-0.5,0.5-0.7c4.2-5.5,10.5,2,3.2,3.6
							c-0.2,3.3,3.5,4.2,4,7.2c0.4,2.5-1.6,4.3-0.8,7.2c4,5.1,12.1-1,15.6,4.4C249.1,546.8,241.9,546.4,238.2,544.1z"/>
						<path fill="#27649B" d="M253.8,539.7c0.6,3.9,6.5,3.4,8.4,2.4c6.5-3.6,2.5-18-3.2-20c-0.7,4.8,4.1,7.6,3.2,14
							C261.4,539.4,255.5,537.4,253.8,539.7z M243,525.7c-7.3,0-1,9.2,1.2,10.8C247.4,534,245.3,527.4,243,525.7z M233,509.7
							c1.5,0,4.4,1,4-2.8c-0.3-0.3-0.6-0.4-0.9-0.4l1.6-1.5c9.9,6,28.8,11.7,30.9,25.6c1.3,8.5-3.3,15.8-10,17.7l-3.6-2.5
							c-3.5-5.4-11.6,0.7-15.6-4.4c-0.8-2.9,1.2-4.7,0.8-7.2c-0.5-3-4.2-3.8-4-7.2c7.3-1.6,1-9.1-3.2-3.6c-0.2,0.2-0.4,0.5-0.5,0.7
							l-0.8-0.5c2.1-3,5.8-4.8,11.3-4.2c4.5,0.5,6.6,3.8,11.6,4.8c-1.4-3.9-6-5.6-9.6-7.6c-3.7-2.1-8.3-4.4-12.4-5.2l0.2-1.6
							C232.9,509.7,232.9,509.7,233,509.7z"/>
						<path fill="#FFFFFF" d="M233,543.3c-4.3-0.5-7.9-1.7-12-2.4c2.8-9.3,8-19.7,11.6-29.6c4.1,0.8,8.7,3.1,12.4,5.2
							c3.6,2,8.2,3.7,9.6,7.6c-5-0.9-7.1-4.2-11.6-4.8c-5.5-0.7-9.1,1.2-11.3,4.2C228,528.8,229,537.9,233,543.3z"/>
						<path fill="#FFFFFF" d="M223.4,430.8c2.1,0.7,4.2,1.5,6,2.2c5.3,1.8,9.5,5,12.4,8.4c1.4,1.7,3.8,4.3,4.8,6.4
							c1.2,2.6,0.7,5.5,1.2,8.4c0.2,1.2,1.1,2.4,1.2,4c0.4,5.8-4.1,19.3,5.9,18.1c0.2,0,0.4,0,0.5-0.1c2.4-0.4,3.5-3.4,5.6-2.4
							c0.9,2-1.3,2.9-2.8,3.6c-0.3,4.8-2.4,6.6-4,11.6c-0.6,1.7-1.9,7.1-0.8,8.7l-1.4-0.2c-1.8-2.8-2.8-6-2.2-12.2
							c0.2-2.5,2.6-4.7,1.2-6.8c-3.7,0.6-1.7,6.9-6.8,6c-2.1-1.4,0.1-3.6,0-5.6c-0.1-1.2-1-2.3-0.8-3.6c0.5-3.2,3.9-5.8-0.4-8.8
							c2.3-3.6-2-5.8,0-9.2c-3.4-7-5.2-15.6-12.8-18.4c0.3-1.6-0.4-2.3-0.4-3.6c-3.1-0.5-4.7-2.5-7.2-3.6L223.4,430.8z"/>
						<path fill="#27649B" d="M205.8,492.1c0.5-0.5,1.7-0.4,2.8-0.4c0,1.6-0.8,2.4-2.4,2.4C205.9,493.7,205.7,493.1,205.8,492.1z"/>
						<path fill="#27649B" d="M206.2,500.1c5.4,2.7,9.4,4.7,16,6c3.8,0.7,7.9,3.3,10.6,3.6l-0.2,1.6c-3.6,9.9-8.8,20.3-11.6,29.6
							c4.1,0.7,7.7,1.9,12,2.4c-4-5.4-5-14.5-1.3-19.8l0.8,0.5c-4,6.4-0.1,16.6,5.7,20c3.7,2.3,10.9,2.7,16.8,1.6l3.6,2.5
							c-0.4,0.1-0.8,0.2-1.2,0.3c4.2,1.3,9.2,1.9,13.6,3.2l1.7,3.1c-3.7,1.4-6.8,4.6-10.9,4.9c-3.6,0.3-9.5-2.4-14-3.6
							c-13.5-3.7-28.9-7.9-41.6-11.2c5.1-12.4,10.9-24,16.4-36c-6.5-2.2-12.9-4.8-18.7-8.2l0.8-1.4
							C205.2,499.6,205.7,499.9,206.2,500.1z"/>
						<path fill="#27649B" d="M201.8,491.7c0.3-1.4,0.8-2.7,2.8-2.4C205.2,491.6,203.3,492.9,201.8,491.7z"/>
						<path fill="#27649B" d="M199.8,488.5c-2.6,0.4-2.9-5.7-0.4-5.6C201,483.8,201.4,487.8,199.8,488.5z"/>
						<path fill="#27649B" d="M246.6,489.3c-0.5,0.6-1.4,1.7,0,2C246.8,491.1,247.5,489.4,246.6,489.3z M194.2,451
							c1.5-3.6,4.6-5.1,7.2-7.2c1.4-1.1,1.4-2.5,2.8-3.2c8.2-4.2,18.6,0.2,25.6-0.4c-0.4-4-8.1-0.7-8.4-4.8c-0.1-1,0.6-1.2,1.2-1.6
							c2.5,1.1,4.1,3.1,7.2,3.6c0,1.3,0.7,2,0.4,3.6c7.6,2.8,9.4,11.4,12.8,18.4c-2,3.4,2.3,5.6,0,9.2c4.3,3,0.9,5.6,0.4,8.8
							c-0.2,1.3,0.7,2.4,0.8,3.6c0.1,2-2.1,4.2,0,5.6c5.1,0.9,3.1-5.4,6.8-6c1.4,2-0.9,4.2-1.2,6.8c-0.6,6.1,0.4,9.3,2.2,12.2
							c0.2,0.2,0.3,0.5,0.5,0.7l-2.7,1.1c-2.2-3.9-4.7-7.5-9.6-8.4c-1.5,3.6-2.9,7.2-4.4,10.8c0.6,0.4,1.2,0.8,1.9,1.2l-1.6,1.5
							c-0.9,0-1.9,0.8-3.1,0.4c-2-2-1.9-5.1-6-3.2c-2.7-3.7-6.3-5.1-10-8c-1.8-1.4-3.5-3.3-5.2-4.4c-1.1-0.7-2.6-0.7-3.6-1.6
							c-1.5-1.3-2.8-4.5-4.8-6.8C196.5,474.9,191.5,464.4,194.2,451z M209,442.2c-10.9,1.7-13.6,18.6-10,27.6
							c5,12.3,17.5,22.1,28.4,28c2.4-6.8,7.5-12.1,9.2-19.6C241.1,458.6,228.3,439.1,209,442.2z"/>
						<path fill="#27649B" d="M196.2,480.9c0.3,2-0.8,2.6-2.8,2.4c-0.5-0.5-0.5-1.4-0.4-2.4C194.1,480.9,195.2,480.9,196.2,480.9z"
							/>
						<path fill="#27649B" d="M189.1,475.3c-4.5-4.9-5.3-16.9-5.2-26.4c0-2.2,4.2-3.5,5.6-4.8c0-0.9,0-1.9,0-2.8
							c2.6-1.6,5.8-2.7,8.4-4.4c-0.2-1.4,0.1-2.2,0.4-3.2c1.6-0.1,2.2,0.7,4,0.4c4.3-3.6,10.7,0.2,14.4-1.2c0.2,1,1.5,0.8,1.2,2.4
							c-8.8-0.6-17.1,2.2-22.4,6.4c-0.6,1.1,1.1,2,0,2.4c-1.6,2.6-4.5,4-6.8,6c0.2,2.4-0.1,6.4,0.8,9.2c-4.3,6.2,4,14.1,1.2,20.4
							C187.9,480.8,187.5,476.1,189.1,475.3z"/>
						<path fill="#FFFFFF" d="M208.6,491.7c-1.1,0-2.3-0.1-2.8,0.4c-0.1,0.9,0.1,1.5,0.4,2C207.8,494.1,208.6,493.3,208.6,491.7z
							 M201.8,491.7c1.5,1.1,3.4-0.1,2.8-2.4C202.6,489.1,202.1,490.3,201.8,491.7z M193.4,483.3c2,0.2,3.1-0.4,2.8-2.4
							c-1.1,0-2.1,0-3.2,0C193,481.9,193,482.9,193.4,483.3z M199.4,483c-2.5-0.1-2.2,6,0.4,5.6C201.4,487.8,201,483.8,199.4,483z
							 M183.9,449c-0.1,9.5,0.7,21.5,5.2,26.4c-1.5,0.8-1.2,5.4,1.6,4.4c2.8-6.2-5.5-14.2-1.2-20.4c-0.9-2.8-0.6-6.8-0.8-9.2
							c2.2-2,5.2-3.3,6.8-6c1.1-0.4-0.6-1.2,0-2.4c5.3-4.2,13.5-7,22.4-6.4c0.3-1.5-1-1.4-1.2-2.4c-3.7,1.3-10.1-2.5-14.4,1.2
							c-1.8,0.3-2.4-0.5-4-0.4c-0.2,1-0.6,1.8-0.4,3.2c-2.6,1.7-5.8,2.8-8.4,4.4c0,0.9,0,1.8,0,2.8
							C188.1,445.4,183.9,446.8,183.9,449z M190.6,486.9c-3.1-4.2-7.3-10.7-9.6-16.8c-0.4-1-0.7-2.4-0.8-3.2
							c-2.1-14.4,3.2-25.9,12-32.4c4.2-3.1,8.8-4.1,15.6-4.8c1.6-0.2,3.1-1.1,4.8-1.2c3.2-0.1,7.1,1,10.8,2.2l-0.8,2.9
							c-0.6,0.4-1.3,0.6-1.2,1.6c0.3,4.1,8,0.8,8.4,4.8c-7,0.6-17.4-3.8-25.6,0.4c-1.3,0.7-1.4,2.1-2.8,3.2
							c-2.6,2.1-5.7,3.6-7.2,7.2c-2.7,13.4,2.2,23.9,9.2,32c2,2.3,3.3,5.5,4.8,6.8c1,0.9,2.4,0.8,3.6,1.6c1.7,1.1,3.3,2.9,5.2,4.4
							c3.7,2.9,7.3,4.2,10,8c4.1-1.9,4,1.2,6,3.2c1.1,0.4,2.2-0.4,3.1-0.4c0.3,0,0.6,0.1,0.9,0.4c0.4,3.8-2.5,2.8-4,2.8
							c-0.1,0-0.1,0-0.2,0c-2.6-0.2-6.8-2.9-10.6-3.6c-6.6-1.3-10.6-3.3-16-6c-0.5-0.3-1-0.5-1.5-0.8c-3.4-2-5.4-4.3-8.1-6.3
							C193.7,490.7,192.9,490.1,190.6,486.9z"/>
						<path fill="#27649B" d="M177.1,465.4c-0.7-23.5,14.1-39.3,34.4-39.6c9.6-0.1,24.9,5.1,30.8,10.8c3.3,3.3,5.1,7.2,6.8,12.8
							c2.8-3.1,3.9-7.5,5.6-11.2c11.6-25.4,21.7-54.6,29.4-84.9c1-4,6.1-22.7,6.2-25.8c-4.2-0.8-8.5-1.1-14.1-1.4
							c-17.4-1-43.7,7.1-54.6,10.2c4.5-18.1,14.2-54.7,14.2-54.7l9.6-4.6c0,0,10.5,7.1,13.3,9.1c2.8,2,22.1,15.7,36.1,23.1l-0.7,1.3
							c-17-8.4-31.1-16.4-48.5-29.7c-4.4,15.4-9.3,30.1-13.2,46c22.9-5.3,43.9-8.6,64.9-1.5c-10.2,42.7-22.2,83.8-37.7,121
							c-3.8,9.1-9.3,18.1-7.2,29.6c1,0.4,1.7,0.5,2.4,0.4l0.3,2c-9.9,1.2-5.4-12.3-5.9-18.1c-0.1-1.5-1-2.8-1.2-4
							c-0.5-2.9,0-5.8-1.2-8.4c-1-2.1-3.3-4.7-4.8-6.4c-2.9-3.4-7.1-6.6-12.4-8.4c-1.9-0.6-3.9-1.4-6-2.2c-3.7-1.3-7.5-2.4-10.8-2.2
							c-1.7,0.1-3.2,1-4.8,1.2c-6.8,0.7-11.4,1.7-15.6,4.8c-8.8,6.4-14.1,17.9-12,32.4c0.1,0.8,0.4,2.2,0.8,3.2
							c2.3,6.1,6.5,12.5,9.6,16.8c2.3,3.2,3.1,3.8,6,6c2.6,2,4.7,4.4,8.1,6.3l-0.8,1.4c-2.8-1.6-5.5-3.4-8-5.4
							C187.5,488.7,177.4,478.6,177.1,465.4z"/>
					</g>
				</g>
			</g>
		</g>
	</g>
</g>
</svg>
